<?xml version="1.0" encoding="UTF-8"?>
<svg width="22px" height="15px" viewBox="0 0 22 15" version="1.1" xmlns="http://www.w3.org/2000/svg" xmlns:xlink="http://www.w3.org/1999/xlink">
    <!-- Generator: Sketch 53.2 (72643) - https://sketchapp.com -->
    <title>Path Copy 3</title>
    <desc>Created with Sketch.</desc>
    <g id="Page-1" stroke="none" stroke-width="1" fill="none" fill-rule="evenodd">
        <g id="TROPIK-MAIN" transform="translate(-1177.000000, -23.000000)" fill="#FFFFFF" fill-rule="nonzero">
            <path d="M1189.06466,37.993375 C1189.62289,37.993375 1189.85113,37.5583807 1189.84471,37.0130307 C1189.8163,34.9591291 1190.49919,33.8534293 1191.73205,35.2944818 C1193.096,36.8887466 1193.37832,37.993375 1195.03467,37.993375 L1197.96788,37.993375 C1198.70851,37.993375 1199,37.7148072 1199,37.2776701 C1199,36.3530394 1197.69747,34.721275 1196.59385,33.5234336 C1195.04841,31.8466698 1194.976,31.8070275 1196.30695,29.7884825 C1197.95779,27.2824439 1200.11737,24.0714145 1198.20712,24.0714145 L1194.55802,24.0714145 C1193.85038,24.0714145 1193.79905,24.5374799 1193.54698,25.2317565 C1192.63493,27.7463664 1190.90159,31.0034666 1190.24345,30.5052588 C1189.55506,29.9856228 1189.87038,27.9274355 1189.92263,24.868547 C1189.93638,24.0607004 1189.93271,23.5067791 1188.87676,23.21964 C1188.3002,23.0642849 1187.73922,23 1187.21857,23 C1185.13508,23 1183.6978,24.0210581 1184.51452,24.1989129 C1185.95454,24.5128373 1185.81613,28.1545753 1185.48065,29.7274119 C1184.89584,32.4659474 1182.69776,27.5588689 1181.78205,25.1149723 C1181.56114,24.5278371 1181.49331,24.0714145 1180.70501,24.0714145 L1177.72139,24.0714145 C1177.27041,24.0714145 1177,24.2428409 1177,24.6242644 C1177,25.269256 1179.71322,31.8241701 1182.30361,35.0919845 C1184.82984,38.2794427 1187.32674,37.993375 1189.06466,37.993375 L1189.06466,37.993375 Z" id="Path-Copy-3"></path>
        </g>
    </g>
</svg>