<?xml version="1.0" encoding="UTF-8"?>
<svg width="22px" height="22px" viewBox="0 0 22 22" version="1.1" xmlns="http://www.w3.org/2000/svg" xmlns:xlink="http://www.w3.org/1999/xlink">
    <!-- Generator: Sketch 53.2 (72643) - https://sketchapp.com -->
    <title>Shape</title>
    <desc>Created with Sketch.</desc>
    <g id="Page-1" stroke="none" stroke-width="1" fill="none" fill-rule="evenodd">
        <g id="01_MOB-TROPIK-MENU" transform="translate(-253.000000, -576.000000)" fill="#213780" fill-rule="nonzero">
            <g id="Group" transform="translate(30.000000, 573.000000)">
                <path d="M233.985333,18.41375 C236.365,18.41375 238.299167,16.4786667 238.299167,14.099 C238.299167,12.8074167 237.728083,11.6478333 236.827,10.8558333 C236.509833,10.5780833 236.15325,10.3461667 235.7655,10.1701667 C235.221917,9.92266667 234.620583,9.78425 233.98625,9.78425 C233.351917,9.78425 232.749667,9.92266667 232.207,10.1701667 C231.818333,10.348 231.460833,10.5799167 231.1455,10.85675 C230.242583,11.64875 229.6715,12.8083333 229.6715,14.0999167 C229.6715,16.4786667 231.6075,18.41375 233.985333,18.41375 Z M234,10.91175 C235.760917,10.91175 237.189083,12.339 237.189083,14.0999167 C237.189083,15.8608333 235.760917,17.289 234,17.289 C232.239083,17.289 230.810917,15.86175 230.810917,14.0999167 C230.810917,12.339 232.239083,10.91175 234,10.91175 Z M238.78775,11.25 L245,11.25 L245,20.6715 C245,23.0621667 243.062167,25 240.6715,25 L227.38625,25 C224.995583,25 223,23.0621667 223,20.6715 L223,11.25 L229.18475,11.25 C228.686083,12.0869167 228.385417,13.0549167 228.385417,14.0999167 C228.385417,17.19275 230.8925,19.6998333 233.985333,19.6998333 C237.078167,19.6998333 239.58525,17.19275 239.58525,14.0999167 C239.586167,13.0549167 239.2855,12.0869167 238.78775,11.25 L238.78775,11.25 Z M240.6715,3 L229.416667,3 L229.416667,7.58333333 L228.5,7.58333333 L228.5,3 L227.583333,3 L227.583333,7.58333333 L226.666667,7.58333333 L226.666667,3.07058333 C226.3495,3.12283333 226.0415,3.20166667 225.75,3.31808333 L225.75,7.58333333 L224.833333,7.58333333 L224.833333,3.82316667 C223.7315,4.60875 223,5.882 223,7.3285 L223,10.3333333 L229.85025,10.3333333 C230.92,9.15816667 232.415083,8.5 233.985333,8.5 C235.563833,8.5 237.057083,9.16458333 238.120417,10.3333333 L245,10.3333333 L245,7.3285 C245,4.93783333 243.062167,3 240.6715,3 Z M243.166667,7.82625 C243.166667,8.19841667 242.861417,8.5 242.48375,8.5 L240.182,8.5 C239.80525,8.5 239.5,8.19841667 239.5,7.82625 L239.5,5.50708333 C239.5,5.13491667 239.80525,4.83333333 240.182,4.83333333 L242.48375,4.83333333 C242.861417,4.83333333 243.166667,5.13491667 243.166667,5.50708333 L243.166667,7.82625 Z" id="Shape"></path>
            </g>
        </g>
    </g>
</svg>