<?xml version="1.0" encoding="UTF-8"?>
<svg width="20px" height="20px" viewBox="0 0 20 20" version="1.1" xmlns="http://www.w3.org/2000/svg" xmlns:xlink="http://www.w3.org/1999/xlink">
    <!-- Generator: Sketch 53.2 (72643) - https://sketchapp.com -->
    <title>Shape</title>
    <desc>Created with Sketch.</desc>
    <g id="Page-1" stroke="none" stroke-width="1" fill="none" fill-rule="evenodd">
        <g id="TROPIK-MAIN" transform="translate(-1127.000000, -20.000000)" fill="#FFFFFF" fill-rule="nonzero">
            <path d="M1136.98667,34.0125 C1139.15,34.0125 1140.90833,32.2533333 1140.90833,30.09 C1140.90833,28.9158333 1140.38917,27.8616667 1139.57,27.1416667 C1139.28167,26.8891667 1138.9575,26.6783333 1138.605,26.5183333 C1138.11083,26.2933333 1137.56417,26.1675 1136.9875,26.1675 C1136.41083,26.1675 1135.86333,26.2933333 1135.37,26.5183333 C1135.01667,26.68 1134.69167,26.8908333 1134.405,27.1425 C1133.58417,27.8625 1133.065,28.9166667 1133.065,30.0908333 C1133.065,32.2533333 1134.825,34.0125 1136.98667,34.0125 Z M1137,27.1925 C1138.60083,27.1925 1139.89917,28.49 1139.89917,30.0908333 C1139.89917,31.6916667 1138.60083,32.99 1137,32.99 C1135.39917,32.99 1134.10083,31.6925 1134.10083,30.0908333 C1134.10083,28.49 1135.39917,27.1925 1137,27.1925 Z M1141.3525,27.5 L1147,27.5 L1147,36.065 C1147,38.2383333 1145.23833,40 1143.065,40 L1130.9875,40 C1128.81417,40 1127,38.2383333 1127,36.065 L1127,27.5 L1132.6225,27.5 C1132.16917,28.2608333 1131.89583,29.1408333 1131.89583,30.0908333 C1131.89583,32.9025 1134.175,35.1816667 1136.98667,35.1816667 C1139.79833,35.1816667 1142.0775,32.9025 1142.0775,30.0908333 C1142.07833,29.1408333 1141.805,28.2608333 1141.3525,27.5 L1141.3525,27.5 Z M1143.065,20 L1132.83333,20 L1132.83333,24.1666667 L1132,24.1666667 L1132,20 L1131.16667,20 L1131.16667,24.1666667 L1130.33333,24.1666667 L1130.33333,20.0641667 C1130.045,20.1116667 1129.765,20.1833333 1129.5,20.2891667 L1129.5,24.1666667 L1128.66667,24.1666667 L1128.66667,20.7483333 C1127.665,21.4625 1127,22.62 1127,23.935 L1127,26.6666667 L1133.2275,26.6666667 C1134.2,25.5983333 1135.55917,25 1136.98667,25 C1138.42167,25 1139.77917,25.6041667 1140.74583,26.6666667 L1147,26.6666667 L1147,23.935 C1147,21.7616667 1145.23833,20 1143.065,20 Z M1145.33333,24.3875 C1145.33333,24.7258333 1145.05583,25 1144.7125,25 L1142.62,25 C1142.2775,25 1142,24.7258333 1142,24.3875 L1142,22.2791667 C1142,21.9408333 1142.2775,21.6666667 1142.62,21.6666667 L1144.7125,21.6666667 C1145.05583,21.6666667 1145.33333,21.9408333 1145.33333,22.2791667 L1145.33333,24.3875 Z" id="Shape"></path>
        </g>
    </g>
</svg>