<?xml version="1.0" encoding="UTF-8"?>
<svg width="24px" height="17px" viewBox="0 0 24 17" version="1.1" xmlns="http://www.w3.org/2000/svg" xmlns:xlink="http://www.w3.org/1999/xlink">
    <!-- Generator: Sketch 53.2 (72643) - https://sketchapp.com -->
    <title>Path Copy 3</title>
    <desc>Created with Sketch.</desc>
    <g id="Page-1" stroke="none" stroke-width="1" fill="none" fill-rule="evenodd">
        <g id="01_MOB-TROPIK-MENU" transform="translate(-321.000000, -579.000000)" fill="#213780" fill-rule="nonzero">
            <g id="Group" transform="translate(30.000000, 573.000000)">
                <path d="M304.161452,22.9924917 C304.770426,22.9924917 305.019416,22.4994981 305.012416,21.8814348 C304.981417,19.5536796 305.726386,18.3005532 307.07133,19.933746 C308.559268,21.7405795 308.867256,22.9924917 310.67418,22.9924917 L313.874047,22.9924917 C314.682013,22.9924917 315,22.6767815 315,22.1813595 C315,21.1334446 313.579059,19.2841117 312.375109,17.9265581 C310.68918,16.0262258 310.610183,15.9812978 312.062122,13.6936135 C313.863047,10.8534364 316.218949,7.21426981 314.135036,7.21426981 L310.154202,7.21426981 C309.382234,7.21426981 309.326236,7.74247717 309.051248,8.52932401 C308.056289,11.3792152 306.165368,15.0705955 305.447398,14.50596 C304.696429,13.9170391 305.040415,11.5844268 305.097413,8.11768654 C305.112412,7.20212711 305.108412,6.57434962 303.95646,6.24892531 C303.327486,6.07285619 302.715512,6 302.147536,6 C299.87463,6 298.306696,7.15719913 299.197658,7.35876791 C300.768593,7.71454897 300.617599,11.841852 300.251615,13.6244001 C299.613641,16.7280738 297.215741,11.166718 296.216783,8.3969686 C295.975793,7.73154875 295.901796,7.21426981 295.041832,7.21426981 L291.786967,7.21426981 C291.294988,7.21426981 291,7.40855298 291,7.84083303 C291,8.57182345 293.959877,16.0007261 296.785759,19.704249 C299.541644,23.3167017 302.265531,22.9924917 304.161452,22.9924917 L304.161452,22.9924917 Z" id="Path-Copy-3"></path>
            </g>
        </g>
    </g>
</svg>